# xmcd
#
# Track frame offsets:
#	150
#	20553
#	34532
#	53441
#	71766
#	90835
#	112955
#	130390
#	146897
#	168076
#	183938
#	201791
#	223409
#	247139
#	265526
#	276968
#	301405
#	328910
#
# Disc length: 4647 seconds
#
# Revision: 83201817
# Processed by: cddbd v1.5.1PL0 Copyright (c) Steve Scherf et al.
# Submitted via: EasyCDDAExtractor 8.0.2.1
#
DISCID=08122512
DTITLE=Lil' Kim - Notorious KIM
DYEAR=2000
DGENRE=Rap
TTITLE0=Lil' Drummer Boy (Featuring Cee-lo of Goodie Mob and Redman)
TTITLE1=Custom Made (Give It To You)
TTITLE2=Who's Number One?
TTITLE3=Suck My D**k
TTITLE4=Single Black Female (Featuring Mario "Yellowman" Winans)
TTITLE5=Revolution (Featuring Grace Jones and Lil' Cease)
TTITLE6=How Many Licks? (Featuring Sisqo)
TTITLE7=Notorious K.I.M.
TTITLE8=No Matter What They Say
TTITLE9=She Don't Love You
TTITLE10=Queen Bitch Pt. 2 (Featuring P. Diddy)
TTITLE11=Don't Mess With Me
TTITLE12=Do What You Like (Featuring Junior M.A.F.I.A.)
TTITLE13=Off The Wall (Featuring Lil' Cease)
TTITLE14=Right Now (Featuring Carl Thomas)
TTITLE15=Aunt Dot (Featuring Lil' Shanice)
TTITLE16=Hold On (Featuring Mary J. Blige)
TTITLE17=I'm Human
EXTD=YEAR: 2000
EXTT0=
EXTT1=
EXTT2=
EXTT3=
EXTT4=
EXTT5=
EXTT6=
EXTT7=
EXTT8=
EXTT9=
EXTT10=
EXTT11=
EXTT12=
EXTT13=
EXTT14=
EXTT15=
EXTT16=
EXTT17=
PLAYORDER=
